<svg xmlns="http://www.w3.org/2000/svg" viewBox="0 0 76.47 76.8"><defs><style>.cls-1{fill:#231f20;}</style></defs><g id="Layer_2" data-name="Layer 2"><g id="Layer_1-2" data-name="Layer 1"><path class="cls-1" d="M74.25,74.3c-.69-9.25-1.46-21.89-2-31.14a61.37,61.37,0,0,0-1-10A33.36,33.36,0,0,0,19.22,11c-24.13,17.08-16.1,54.7,13,60.27C41.94,73,49.83,70.83,52,60.09c.67-2.71.37-7,.43-9.83,0-1.88.06-11.18,0-12.85A14.86,14.86,0,0,0,35.49,23.74,15.92,15.92,0,0,0,28.24,52.1a17.17,17.17,0,0,0,9.37,3.6,17.87,17.87,0,0,1-10.17-2.44C10.1,42,20,15.76,40.69,18.83A19.86,19.86,0,0,1,57.22,35.61c.42,2.85.13,11.57.21,14.58v5.18c0,5.85-1.48,11.65-5.67,16.14-4.84,5.17-12.48,5.93-19.1,4.88a25.29,25.29,0,0,1-2.74-.47,44.61,44.61,0,0,1-6.62-2.08C-5.48,61.36-8.27,21.56,18.7,5.41a38.41,38.41,0,0,1,57.57,27c.65,6.17-.46,14.88-.65,21.13-.32,5.16-1,15.6-1.37,20.76Z"/></g></g></svg>